HIERARCHY
ROOT Hips
{
  OFFSET -331.093 83.8371 -317.828
  CHANNELS 6 Xposition Yposition Zposition Zrotation Xrotation Yrotation
  JOINT LeftUpLeg
  {
    OFFSET 8.64259 1.95398 -2.38835
    CHANNELS 3 Zrotation Xrotation Yrotation
    JOINT LeftLeg
    {
      OFFSET 43.7702 0 0
      CHANNELS 3 Zrotation Xrotation Yrotation
      JOINT LeftFoot
      {
        OFFSET 40.6238 0 0
        CHANNELS 3 Zrotation Xrotation Yrotation
        JOINT LeftToeBase
        {
          OFFSET 12.7242 0 0
          CHANNELS 3 Zrotation Xrotation Yrotation
          End Site
          {
            OFFSET 0 0 0
          }
        }
      }
    }
  }
  JOINT RightUpLeg
  {
    OFFSET -8.2249 1.95398 -2.59336
    CHANNELS 3 Zrotation Xrotation Yrotation
    JOINT RightLeg
    {
      OFFSET 43.5653 0 0
      CHANNELS 3 Zrotation Xrotation Yrotation
      JOINT RightFoot
      {
        OFFSET 40.6238 0 0
        CHANNELS 3 Zrotation Xrotation Yrotation
        JOINT RightToeBase
        {
          OFFSET 12.7242 0 0
          CHANNELS 3 Zrotation Xrotation Yrotation
          End Site
          {
            OFFSET 0 0 0
          }
        }
      }
    }
  }
  JOINT Spine
  {
    OFFSET 0.165834 0.87714 6.61349
    CHANNELS 3 Zrotation Xrotation Yrotation
    JOINT Spine1
    {
      OFFSET 7.38963 1.71661e-005 0
      CHANNELS 3 Zrotation Xrotation Yrotation
      JOINT Spine2
      {
        OFFSET 11.9445 1.14441e-005 0
        CHANNELS 3 Zrotation Xrotation Yrotation
        JOINT Spine3
        {
          OFFSET 14.7254 4.19617e-005 0
          CHANNELS 3 Zrotation Xrotation Yrotation
          JOINT Spine4
          {
            OFFSET 10.9679 0 0
            CHANNELS 3 Zrotation Xrotation Yrotation
            JOINT RightShoulder
            {
              OFFSET 2.46616 -1.6653 3.69651
              CHANNELS 3 Zrotation Xrotation Yrotation
              JOINT RightArm
              {
                OFFSET 13.0012 0 0
                CHANNELS 3 Zrotation Xrotation Yrotation
                JOINT RightForeArm
                {
                  OFFSET 28.7848 1.62311e-005 0
                  CHANNELS 3 Zrotation Xrotation Yrotation
                  JOINT RightHand
                  {
                    OFFSET 26.5688 1.62095e-005 0
                    CHANNELS 3 Zrotation Xrotation Yrotation
                    End Site
                    {
                      OFFSET 0 0 0
                    }
                  }
                }
              }
            }
            JOINT LeftShoulder
            {
              OFFSET 2.38034 -1.29275 -3.7523
              CHANNELS 3 Zrotation Xrotation Yrotation
              JOINT LeftArm
              {
                OFFSET 16.3182 6.07031e-005 0
                CHANNELS 3 Zrotation Xrotation Yrotation
                JOINT LeftForeArm
                {
                  OFFSET 27.0901 0 0
                  CHANNELS 3 Zrotation Xrotation Yrotation
                  JOINT LeftHand
                  {
                    OFFSET 24.5451 1.51738e-005 0
                    CHANNELS 3 Zrotation Xrotation Yrotation
                    End Site
                    {
                      OFFSET 0 0 0
                    }
                  }
                }
              }
            }
            JOINT Neck
            {
              OFFSET 5.0226 -0.0266342 0
              CHANNELS 3 Zrotation Xrotation Yrotation
              JOINT Head
              {
                OFFSET 6.69364 2.86102e-005 0
                CHANNELS 3 Zrotation Xrotation Yrotation
                End Site
                {
                  OFFSET 0 0 0
                }
              }
            }
          }
        }
      }
    }
  }
}
MOTION
Frames:	15
Frame Time:	0.0416667
-45.7255 11.0688 8.92926 1.80939 -1.61281 77.3062 -177.658 10.1148 89.0217 -24.4406 30.7397 -0.204111 57.9733 -1.73422 -0.123503 81.755 56.0377 10.9401 178.279 10.6362 89.9517 -31.7674 -18.837 -7.36211 61.2091 0.454176 0.230667 51.8029 2.86513 9.94181 2.05366 6.42122 -92.6332 14.075 2.78192 -5.66058 2.3942 2.53051 -5.77705 -20.095 4.35292 -4.56597 -0.0824002 4.35293 -4.56599 100.233 -18.6142 -86.9098 -80.4229 40.3195 88.8581 -7.19195 -26.5713 -139.55 -45.8731 -1.84275 -0.608878 178.337 -54.8716 -24.6904 117.062 -37.0983 86.8772 14.2819 20.4738 -145.935 44.994 7.49653 12.8212 -12.8093 -37.2673 24.3609 24.9726 -44.3274 -32.6094 
-45.7385 11.0848 8.95987 1.74189 -1.60131 77.3372 -177.504 10.2347 89.1281 -24.4413 31.0397 -0.337318 57.815 -1.74722 0.157177 81.8286 57.7593 12.4869 178.294 10.8131 89.9873 -31.8422 -18.7934 -7.34502 61.0195 0.552204 0.296056 52.1056 2.94953 10.1269 2.04337 6.39825 -92.6379 14.1203 2.75776 -5.66912 2.43936 2.50602 -5.78453 -20.049 4.33243 -4.58142 -0.0363839 4.33245 -4.58142 100.079 -19.1708 -87.2208 -81.081 39.9771 88.6743 -6.84077 -26.8312 -139.178 -45.457 -1.75024 -0.796391 178.229 -54.81 -24.8165 116.744 -36.9576 86.8033 13.6854 21.1077 -145.954 45.0732 7.43168 12.6444 -12.8894 -37.3256 25.0908 24.2489 -44.4666 -33.7443 
-45.7302 11.0621 8.90773 1.84197 -1.60573 77.3253 -177.572 10.1882 89.0823 -24.5818 30.7736 -0.261004 58.1585 -1.69204 -0.275344 77.5164 59.0903 18.406 178.172 10.5992 89.8752 -31.6676 -18.7729 -7.28334 60.843 0.626855 0.349085 52.3898 3.31708 11.1631 2.03917 6.45186 -92.6367 14.0128 2.75323 -5.66045 2.33191 2.50185 -5.77568 -20.1566 4.3255 -4.57449 -0.143975 4.32552 -4.57451 100.237 -18.655 -86.8907 -80.2948 40.5407 88.6954 -6.98053 -26.5056 -139.148 -46.4713 -1.65439 -1.1357 178.328 -54.7781 -24.7477 117.698 -37.139 87.4968 14.1564 20.8363 -146.033 45.65 7.59076 12.769 -11.6418 -37.1159 25.7746 23.1606 -44.3226 -34.3527 
-45.7122 11.0382 8.83683 1.87403 -1.60319 77.2998 -177.676 10.0967 88.9775 -24.5627 30.7367 -0.194605 58.0889 -1.68829 -0.184429 81.7396 55.839 10.7837 178.104 10.8168 89.7993 -31.9418 -18.9243 -7.27692 60.8522 0.637026 0.353033 51.6922 3.79998 12.8023 2.03858 6.42763 -92.627 14.0613 2.75536 -5.64388 2.38052 2.50473 -5.75921 -20.1085 4.32259 -4.55803 -0.0958654 4.32258 -4.55803 100.31 -17.9461 -86.7912 -78.6293 40.554 88.2963 -7.633 -25.7825 -139.838 -45.6756 -1.64445 -1.11192 178.341 -54.8367 -24.7052 117.358 -37.1523 87.2541 14.2187 20.6896 -146.104 44.9181 7.53316 12.9337 -12.4291 -37.2377 25.2599 23.707 -44.3939 -34.1157 
-45.7065 11.0339 8.81257 1.89086 -1.44884 77.3127 -177.737 10.2778 88.9618 -24.7506 31.0383 -0.152321 58.0892 -1.65178 -0.0870817 80.273 59.2938 15.5633 177.991 10.6731 89.7588 -31.7703 -18.9381 -7.19742 61.0881 0.506739 0.267668 51.8554 3.06111 10.522 2.03385 6.42355 -92.6176 14.0693 2.75033 -5.62481 2.38864 2.50053 -5.73995 -20.1008 4.31209 -4.54133 -0.0881952 4.31207 -4.54132 100.198 -18.7963 -86.968 -80.6115 40.2406 88.9812 -7.40463 -26.6367 -139.557 -46.4578 -1.59612 -1.29462 178.488 -54.9605 -24.5126 117.401 -37.375 87.2513 14.2822 20.5809 -145.992 44.9141 7.40589 12.6499 -12.7882 -37.2968 24.4597 24.2018 -44.3598 -33.5047 
-45.7434 11.0273 8.98635 1.7827 -1.95727 77.284 -177.475 9.96558 89.1201 -24.2744 31.0069 -0.353843 57.7087 -1.87283 0.0162797 84.3998 59.9772 11.818 178.344 10.6272 89.9763 -31.7705 -18.8721 -7.43779 61.0207 0.561304 0.300179 52.1457 3.05098 10.4207 2.07792 6.44328 -92.6386 14.0322 2.82856 -5.67554 2.3514 2.57646 -5.79402 -20.1386 4.40189 -4.56624 -0.12591 4.40189 -4.56624 100.137 -18.2468 -87.188 -80.1206 40.3313 89.013 -7.61533 -26.3549 -139.697 -45.9685 -1.48082 -1.55953 178.022 -54.7033 -25.0523 117.321 -37.3077 87.2601 13.7308 21.2073 -146.002 45.0525 7.4142 12.6136 -12.3745 -37.261 25.5926 23.7075 -44.4513 -34.1732 
-45.7405 11.0291 8.97783 1.83439 -1.95572 77.2681 -177.41 10.075 89.1257 -24.386 31.2731 -0.406214 57.6323 -1.85264 0.215324 84.1109 57.5407 9.8843 178.373 10.7185 89.9704 -31.9841 -18.9208 -7.45802 60.9812 0.57226 0.310837 51.7328 2.88688 10.0184 2.08568 6.44346 -92.6392 14.0322 2.84365 -5.67881 2.35146 2.59138 -5.79798 -20.1388 4.41727 -4.56485 -0.126127 4.41727 -4.56485 100.464 -17.1069 -86.4899 -77.3241 40.9682 88.1655 -7.94543 -25.4912 -140.296 -46.5861 -1.58357 -1.3511 178.002 -54.6914 -25.0757 118.002 -37.2321 87.6482 14.4052 20.6504 -146.126 44.8328 7.4594 12.8026 -12.4042 -37.3639 25.9824 23.0003 -44.5604 -35.0574 
-45.7566 11.0326 8.97802 1.8809 -1.93071 77.2823 -177.327 10.1003 89.1545 -24.4608 31.3755 -0.474027 57.8664 -1.61951 0.440674 82.4977 59.6136 13.4581 178.317 10.6989 89.9536 -31.9297 -18.7218 -7.40871 60.9575 0.56796 0.312928 52.1603 3.48228 11.7099 2.09685 6.47503 -92.6405 13.9698 2.86701 -5.68114 2.28903 2.61462 -5.8013 -20.2017 4.44025 -4.56002 -0.189094 4.44023 -4.56003 100.168 -18.3584 -87.0999 -81.3963 40.1439 89.8357 -7.24639 -27.1727 -139.414 -45.9504 -1.51143 -1.47426 178.124 -54.7566 -24.9357 117.394 -37.549 87.2398 14.1341 20.6892 -146.038 44.9345 7.44878 12.7378 -11.6611 -37.2724 25.754 22.9762 -44.399 -34.28 
-45.7501 11.0321 8.96542 1.80757 -1.74984 77.3459 -177.442 10.2568 89.18 -24.5064 31.5417 -0.368896 57.4275 -1.92917 0.373206 88.3463 60.4073 8.14629 178.269 10.6256 89.9945 -31.7569 -18.5885 -7.31633 60.8222 0.656994 0.364499 51.1912 3.11518 10.8565 2.03022 6.39644 -92.625 14.1234 2.73791 -5.64059 2.44261 2.48742 -5.75515 -20.0461 4.30496 -4.56012 -0.0334637 4.30495 -4.56012 100.109 -17.362 -87.3666 -77.737 40.3625 88.4747 -8.17041 -25.5333 -140.35 -45.0357 -1.892 -0.419807 178.333 -54.8121 -24.7253 117.821 -36.7418 87.6124 14.0721 21.1192 -146.088 44.8817 7.48851 12.8478 -14.3223 -37.5129 24.7817 24.2231 -44.6368 -34.7062 
-45.7435 11.0225 8.98424 1.82129 -1.92069 77.2854 -177.421 9.99923 89.1301 -24.303 31.3652 -0.407691 57.7022 -1.72477 0.396398 81.5427 56.6395 11.7451 178.349 10.7042 89.9892 -31.908 -18.7493 -7.4344 60.9597 0.592602 0.321819 52.1189 3.02072 10.3368 2.09079 6.49135 -92.6277 13.9369 2.86225 -5.65314 2.25633 2.61109 -5.77315 -20.2351 4.42732 -4.53472 -0.222479 4.42732 -4.53472 100.433 -17.8616 -86.4917 -80.0716 40.9401 89.5332 -7.45267 -26.6849 -139.896 -46.0975 -1.85298 -0.613669 178.567 -54.9357 -24.4569 117.444 -37.6119 87.3266 14.2293 20.5998 -145.986 45.6563 7.44885 12.4532 -11.4173 -37.1202 25.2322 22.8543 -44.1585 -33.916 
-45.76 11.0175 8.98768 1.79969 -1.92952 77.2831 -177.452 9.95348 89.1191 -24.2096 31.4405 -0.389228 57.7244 -1.66062 0.529733 82.8634 58.3453 11.9252 178.324 10.864 89.975 -32.0025 -18.7902 -7.42126 60.9416 0.60207 0.327307 51.9822 3.40453 11.5106 2.06177 6.45561 -92.638 14.0065 2.79767 -5.66879 2.32571 2.5459 -5.78593 -20.1637 4.3704 -4.56907 -0.15104 4.3704 -4.5691 100.124 -17.9885 -87.2492 -79.5045 40.4115 88.9199 -7.2814 -26.4199 -139.65 -46.7402 -1.55364 -1.42469 178.079 -54.6845 -25.013 118.075 -37.02 87.6781 14.0343 21.1543 -146.002 45.2286 7.47147 12.6715 -12.8094 -37.3496 25.5454 23.4214 -44.5238 -34.7845 
-45.7409 11.0229 8.9822 1.74363 -1.90071 77.268 -177.386 10.0339 89.14 -24.1476 31.495 -0.454917 57.4278 -1.89901 0.423348 86.4521 59.9253 9.63143 178.382 10.8982 89.9889 -32.0769 -18.7526 -7.45384 61.0145 0.574804 0.308386 51.0334 2.91504 10.2855 2.07624 6.44682 -92.6504 14.0249 2.81962 -5.69763 2.34398 2.56656 -5.8157 -20.1451 4.39999 -4.59005 -0.132495 4.4 -4.59006 101.218 -15.5214 -84.6754 -71.6886 42.824 86.0627 -9.33004 -23.1249 -142.159 -46.911 -1.93948 -0.5051 177.977 -54.6528 -25.1175 117.609 -37.1276 87.4322 14.0077 21.0355 -146.038 45.0231 7.48046 12.7733 -12.5835 -37.4421 25.6456 23.2669 -44.5855 -34.694 
-45.7267 10.9942 8.85178 1.93844 -1.75257 77.2651 -177.575 9.96157 88.9904 -24.4053 31.3925 -0.300891 57.7856 -1.67394 0.408358 81.3085 55.4699 10.8998 178.124 10.4806 89.7686 -31.6928 -18.9392 -7.3028 61.0936 0.478003 0.258588 52.2604 3.06572 10.434 2.04705 6.43604 -92.6185 14.0451 2.77673 -5.62897 2.36447 2.52673 -5.74525 -20.1255 4.33853 -4.53734 -0.112915 4.33852 -4.53735 101.84 -15.2742 -83.0607 -67.208 44.2949 83.5511 -10.242 -20.7355 -143.509 -46.2917 -2.09429 -0.100733 178.278 -54.8349 -24.7612 117.539 -37.0154 87.3478 14.1299 20.913 -146.003 45.247 7.46541 12.6507 -14.2814 -37.2964 23.4637 25.4211 -44.3277 -32.9914 
-45.7069 11.0018 8.86497 1.83471 -1.62425 77.2654 -177.565 10.1506 89.0085 -24.3166 31.5648 -0.325571 57.2544 -1.98918 0.445678 86.8864 61.2603 10.4019 177.932 10.8787 89.7526 -32.0267 -18.9619 -7.2014 61.1531 0.530209 0.269161 50.5749 3.1807 11.2285 2.02265 6.4143 -92.6318 14.0871 2.72065 -5.65012 2.40622 2.46977 -5.76393 -20.0819 4.29133 -4.57442 -0.0691693 4.29135 -4.57444 101.636 -14.6209 -83.6384 -66.9332 44.007 83.8726 -10.5913 -20.6968 -143.602 -46.2008 -1.99137 -0.364733 178.115 -54.724 -24.9605 117.904 -36.7969 87.7032 14.1109 21.1288 -146.042 45.3285 7.58477 12.8835 -14.4164 -37.352 24.2431 24.9754 -44.4719 -33.8769 
-45.7573 11.021 8.98102 1.76785 -1.96669 77.2654 -177.391 10.2206 89.1217 -24.469 31.5882 -0.44943 57.7011 -1.62036 0.707456 80.582 57.6639 13.7274 178.344 10.8901 89.9468 -32.0521 -19.0767 -7.43096 61.1814 0.464614 0.242057 51.7632 3.29031 11.2392 2.08631 6.48669 -92.6252 13.946 2.85423 -5.64752 2.26542 2.60336 -5.76718 -20.226 4.418 -4.53175 -0.213353 4.418 -4.53174 102.095 -14.558 -82.406 -65.4588 45.2506 83.0362 -10.5356 -20.0745 -144.017 -45.9477 -2.15029 0.0697304 178.38 -54.8543 -24.6624 117.638 -37.5446 87.4303 14.0816 20.8723 -145.908 45.0321 7.39724 12.5839 -13.0701 -37.0443 23.6136 25.4371 -44.1172 -32.3783 
